<?xml version="1.0" encoding="iso-8859-1"?>
<!-- Generator: Adobe Illustrator 19.0.0, SVG Export Plug-In . SVG Version: 6.00 Build 0)  -->
<svg version="1.1" id="Layer_1" xmlns="http://www.w3.org/2000/svg" xmlns:xlink="http://www.w3.org/1999/xlink" x="0px" y="0px"
	 viewBox="0 0 512 512" style="enable-background:new 0 0 512 512;" xml:space="preserve">
<g>
	<g>
		<path d="M484.992,193.417c-8.624-1.904-17.184,3.472-19.12,12.096l-54.544,242.352h-311.2l-54-242
			c-1.92-8.624-10.496-13.984-19.104-12.128c-8.624,1.936-14.048,10.48-12.128,19.104l56.8,254.512
			c1.632,7.312,8.128,12.512,15.616,12.512h336.816c7.488,0,13.968-5.184,15.6-12.48l57.36-254.848
			C499.024,203.913,493.616,195.353,484.992,193.417z"/>
	</g>
</g>
<g>
	<g>
		<path d="M496,192.329H16c-8.832,0-16,7.168-16,16c0,8.832,7.168,16,16,16h480c8.832,0,16-7.168,16-16
			C512,199.497,504.832,192.329,496,192.329z"/>
	</g>
</g>
<g>
	<g>
		<path d="M464,255.865H48c-8.832,0-16,7.168-16,16c0,8.832,7.168,16,16,16h416c8.832,0,16-7.168,16-16
			C480,263.033,472.832,255.865,464,255.865z"/>
	</g>
</g>
<g>
	<g>
		<path d="M448,319.865H64c-8.832,0-16,7.168-16,16c0,8.832,7.168,16,16,16h384c8.832,0,16-7.168,16-16
			C464,327.033,456.832,319.865,448,319.865z"/>
	</g>
</g>
<g>
	<g>
		<path d="M432,383.865H80c-8.832,0-16,7.168-16,16c0,8.832,7.168,16,16,16h352c8.832,0,16-7.168,16-16
			C448,391.033,440.832,383.865,432,383.865z"/>
	</g>
</g>
<g>
	<g>
		<path d="M189.84,460.617l-29.328-249.328c-1.04-8.768-9.072-15.088-17.76-14.016c-8.768,1.04-15.04,8.992-14.016,17.76
			l29.328,249.328c0.96,8.128,7.872,14.128,15.872,14.128c0.624,0,1.248-0.032,1.888-0.112
			C184.592,477.337,190.864,469.385,189.84,460.617z"/>
	</g>
</g>
<g>
	<g>
		<path d="M371.68,197.273c-8.768-1.056-16.736,5.232-17.76,14.016l-29.328,249.328c-1.04,8.768,5.232,16.736,14.016,17.76
			c0.624,0.08,1.264,0.112,1.888,0.112c8,0,14.896-5.984,15.872-14.128l29.328-249.328
			C386.736,206.265,380.464,198.297,371.68,197.273z"/>
	</g>
</g>
<g>
	<g>
		<path d="M256,197.161c-8.832,0-16,7.168-16,16v250.704c0,8.832,7.168,16,16,16c8.832,0,16-7.168,16-16V213.161
			C272,204.329,264.832,197.161,256,197.161z"/>
	</g>
</g>
<g>
	<g>
		<path d="M230.896,32.985c-8.384-2.832-17.456,1.648-20.304,10l-53.968,158.496c-2.832,8.368,1.632,17.456,10,20.304
			c1.712,0.576,3.44,0.864,5.152,0.864c6.672,0,12.896-4.192,15.152-10.864l53.968-158.496
			C243.728,44.921,239.264,35.833,230.896,32.985z"/>
	</g>
</g>
<g>
	<g>
		<path d="M357.904,201.497l-54-158.496c-2.864-8.368-11.968-12.832-20.304-10c-8.368,2.848-12.848,11.952-10,20.304l54,158.496
			c2.272,6.656,8.48,10.848,15.152,10.848c1.712,0,3.456-0.272,5.152-0.848C356.272,218.953,360.752,209.849,357.904,201.497z"/>
	</g>
</g>
<g>
</g>
<g>
</g>
<g>
</g>
<g>
</g>
<g>
</g>
<g>
</g>
<g>
</g>
<g>
</g>
<g>
</g>
<g>
</g>
<g>
</g>
<g>
</g>
<g>
</g>
<g>
</g>
<g>
</g>
</svg>
